<svg width="110" height="34" viewBox="0 0 110 34" fill="none" xmlns="http://www.w3.org/2000/svg">
<path d="M108.486 1.50012C107.844 4.28549 106.448 6.85218 104.441 8.93248C102.329 11.0913 99.6848 12.6876 96.7603 13.5698C93.8359 14.4519 90.7285 14.5906 87.7335 13.9724C81.194 12.6894 78.1946 9.74144 76.9774 8.07408C75.753 6.33373 74.0897 4.92948 72.1475 3.99624C66.6739 1.47956 61.0644 3.45142 57.8123 5.13689C56.9464 5.58695 55.9801 5.82239 54.9987 5.82239C54.0173 5.82239 53.051 5.58695 52.185 5.13689C48.933 3.45142 43.3235 1.47956 37.8499 3.99624C35.9078 4.92973 34.2446 6.33392 33.02 8.07408C31.8163 9.72005 28.8684 12.626 22.4758 13.9296C19.4528 14.5847 16.3074 14.4691 13.3436 13.5938C10.3798 12.7186 7.69783 11.1134 5.55677 8.93328C3.55094 6.85257 2.15484 4.28561 1.5141 1.50012C1.5141 1.50012 -0.760625 50.3029 52.4655 25.4423C53.2566 25.0736 54.1225 24.8823 54.9995 24.8823C55.8765 24.8823 56.7424 25.0736 57.5336 25.4423C110.766 50.3029 108.486 1.50012 108.486 1.50012Z" stroke="#E9C664" stroke-width="3" stroke-linecap="round" stroke-linejoin="round"/>
</svg>
