<svg width="49" height="73" viewBox="0 0 49 73" fill="none" xmlns="http://www.w3.org/2000/svg">
<path d="M16.184 54.104L20.586 38.462C20.586 38.462 11.586 17.233 9.14602 11.268C6.70602 5.303 11.688 1 11.688 1L24.174 30.924H24.186L36.673 1.002C36.673 1.002 41.66 5.302 39.217 11.27C36.774 17.238 27.774 38.462 27.774 38.462L32.146 53.994" stroke="black" stroke-width="2" stroke-linecap="round" stroke-linejoin="round"/>
<path d="M20.118 61.83C20.1187 63.9776 19.3961 66.0628 18.0668 67.7496C16.7375 69.4363 14.8789 70.6263 12.7906 71.1277C10.7024 71.629 8.50617 71.4126 6.55597 70.5132C4.60577 69.6139 3.01518 68.084 2.04071 66.1702C1.06623 64.2565 0.764619 62.0703 1.18445 59.9642C1.60427 57.858 2.72112 55.9546 4.35492 54.5607C5.98872 53.1669 8.04426 52.3638 10.1902 52.2809C12.3362 52.1981 14.4476 52.8403 16.184 54.104" stroke="black" stroke-width="2" stroke-linecap="round" stroke-linejoin="round"/>
<path d="M32.1461 53.995C33.8996 52.771 36.0131 52.1707 38.1483 52.29C40.2834 52.4093 42.3168 53.2415 43.923 54.6532C45.5293 56.065 46.6155 57.9748 47.0079 60.077C47.4002 62.1792 47.076 64.3522 46.0872 66.2484C45.0983 68.1445 43.502 69.6541 41.5536 70.5356C39.6053 71.4171 37.4175 71.6195 35.3405 71.1104C33.2635 70.6014 31.4173 69.4102 30.0974 67.7277C28.7774 66.0452 28.06 63.9685 28.0601 61.83" stroke="black" stroke-width="2" stroke-linecap="round" stroke-linejoin="round"/>
<path d="M20.1179 61.8301C20.1799 59.1791 20.6979 43.3741 24.0919 43.3741C27.4859 43.3741 28 59.1841 28.059 61.7031" stroke="black" stroke-width="2" stroke-linecap="round" stroke-linejoin="round"/>
</svg>
